# xmcd CD database file
#
# Track frame offsets:
#	150
#	51919
#	102659
#	120871
#
# Disc length: 2399 seconds
#
# Revision: 0
# Processed by: cddbd v1.5.2PL0 Copyright (c) Steve Scherf et al.
# Submitted via: CDex 1.70beta2
#
DISCID=2e095d04
DTITLE=Walk Through Fire - Furthest From Heaven
DYEAR=2011
DGENRE=Sludge Metal
TTITLE0=Furthest From Heaven
TTITLE1=Through Me They Bleed
TTITLE2=The Dying Sun
TTITLE3=The Dead Sun
EXTD=YEAR: 2011
EXTT0=
EXTT1=
EXTT2=
EXTT3=
PLAYORDER=
